<!-- social arrows quotes-->
<svg width="26" height="21" viewBox="0 0 26 21" fill="none" xmlns="http://www.w3.org/2000/svg">
  <g id="quotes">
    <path d="M10.56 15.616C10.56 17.0453 10.0373 18.2507 8.992 19.232C7.968 20.2133 6.72 20.704 5.248 20.704C3.73333 20.704 2.47467 20.2133 1.472 19.232C0.490667 18.2507 0 17.0453 0 15.616C0 14.9333 0.096 14.208 0.288 13.44C0.48 12.672 0.864 11.68 1.44 10.464L6.4 0H11.2L8.544 11.584C9.14133 12.0107 9.62133 12.576 9.984 13.28C10.368 13.9627 10.56 14.7413 10.56 15.616ZM24.8 15.616C24.8 17.0453 24.2773 18.2507 23.232 19.232C22.1867 20.2133 20.9387 20.704 19.488 20.704C18.016 20.704 16.768 20.2133 15.744 19.232C14.7413 18.2507 14.24 17.0453 14.24 15.616C14.24 14.9333 14.336 14.208 14.528 13.44C14.72 12.672 15.1147 11.68 15.712 10.464L20.704 0H25.472L22.784 11.584C23.4027 12.0107 23.8933 12.576 24.256 13.28C24.6187 13.9627 24.8 14.7413 24.8 15.616Z" fill="#ABB2BF"/>
  </g>

  <g id="ball">
    <path fill-rule="evenodd" clip-rule="evenodd" d="M11.5 0C5.152 0 0 5.152 0 11.5C0 17.848 5.152 23 11.5 23C17.8365 23 23 17.848 23 11.5C23 5.152 17.8365 0 11.5 0ZM19.0958 5.3015C20.5115 7.02546 21.2951 9.18167 21.3167 11.4123C20.9918 11.3505 17.7488 10.6892 14.4814 11.1004C14.4066 10.9394 14.3434 10.764 14.2686 10.5901C14.0688 10.1157 13.8446 9.62981 13.6203 9.16694C17.2371 7.69637 18.8844 5.57606 19.0972 5.30006L19.0958 5.3015ZM11.5 1.69625C13.9941 1.69625 16.2768 2.63063 18.0119 4.16587C17.8365 4.416 16.3516 6.39831 12.8599 7.70787C11.2499 4.75238 9.46737 2.33162 9.19281 1.95788C9.94909 1.78129 10.7234 1.69349 11.5 1.69625ZM7.32119 2.61913C8.63747 4.44338 9.85348 6.33793 10.9638 8.29438C6.37387 9.51625 2.32012 9.49181 1.88312 9.49181C2.19917 8.00504 2.85438 6.61137 3.79766 5.41949C4.74094 4.22761 5.9468 3.26973 7.32119 2.62056V2.61913ZM1.67181 11.5144V11.2125C2.09588 11.2269 6.86119 11.2887 11.7631 9.81669C12.0491 10.3644 12.3108 10.9264 12.5609 11.4871L12.1728 11.5992C7.10988 13.2336 4.416 17.6985 4.19031 18.0737C2.56856 16.2734 1.67131 13.936 1.67181 11.5129V11.5144ZM11.5 21.3282C9.31723 21.3316 7.19639 20.6027 5.47687 19.2582C5.64937 18.8959 7.64606 15.0549 13.1833 13.1215C13.2092 13.1086 13.2207 13.1086 13.2466 13.0971C14.1801 15.5068 14.8814 18.0002 15.341 20.5433C14.1277 21.0646 12.8205 21.3318 11.5 21.3282ZM16.9769 19.6449C16.8763 19.0454 16.3516 16.1776 15.0679 12.6471C18.1484 12.1613 20.8423 12.9591 21.1787 13.0712C20.9692 14.3975 20.4876 15.6662 19.7643 16.7974C19.0409 17.9287 18.0914 18.8982 16.9754 19.6449H16.9769Z" fill="#ABB2BF"/>
  </g>

  <g id="bitcoin">
    <path d="M12.1324 25.2308V27.5385C12.1324 27.7932 12.3382 28 12.5919 28H14.4301C14.552 28 14.6689 27.9514 14.7551 27.8648C14.8413 27.7783 14.8897 27.6609 14.8897 27.5385V25.2308H15.8088V27.5385C15.8088 27.7932 16.0147 28 16.2684 28H18.1066C18.2285 28 18.3454 27.9514 18.4316 27.8648C18.5178 27.7783 18.5662 27.6609 18.5662 27.5385V25.2308H18.7206C22.3824 25.2308 25 23.3237 25 20.0246C25 17.2517 23.1489 15.736 20.9816 15.52V15.3575C22.7647 14.9108 24.0754 13.5594 24.0754 11.3145C24.0754 8.48615 21.9614 6.76923 18.7353 6.76923H18.5662V4.46154C18.5662 4.33913 18.5178 4.22174 18.4316 4.13518C18.3454 4.04863 18.2285 4 18.1066 4H16.2684C16.1465 4 16.0296 4.04863 15.9434 4.13518C15.8572 4.22174 15.8088 4.33913 15.8088 4.46154V6.76923H14.7555V4.46154C14.7555 4.33913 14.7071 4.22174 14.6209 4.13518C14.5347 4.04863 14.4178 4 14.296 4H12.5919C12.47 4 12.3531 4.04863 12.267 4.13518C12.1808 4.22174 12.1324 4.33913 12.1324 4.46154V6.76923L8.45956 6.78954C8.33768 6.78954 8.22079 6.83816 8.1346 6.92472C8.04842 7.01128 8 7.12867 8 7.25108V9.07692C8 9.32985 8.20221 9.53846 8.45588 9.53846L9.84375 9.52923C10.2078 9.53167 10.5561 9.67862 10.8127 9.93802C11.0693 10.1974 11.2132 10.5482 11.2132 10.9138V21.0769C11.2132 21.4441 11.068 21.7963 10.8094 22.056C10.5509 22.3157 10.2002 22.4615 9.83456 22.4615L8.45956 22.4818C8.33768 22.4818 8.22079 22.5305 8.1346 22.617C8.04842 22.7036 8 22.821 8 22.9434V24.7895C8 25.0443 8.20588 25.2511 8.45956 25.2511L12.1324 25.2308ZM14.7555 9.51446H17.9154C19.5809 9.51446 20.5588 10.4338 20.5588 11.9366C20.5588 13.5446 19.5018 14.4511 17.1085 14.4511H14.7555V9.51446ZM14.7555 16.9932H18.1379C20.2279 16.9932 21.3658 18.064 21.3658 19.8068C21.3658 21.5662 20.2151 22.4837 17.3989 22.4837H14.7555V16.9951V16.9932Z" fill="#ABB2BF"/>
  </g>

  <g id="card">
    <path d="M5 10.6667C5 9.95942 5.28973 9.28115 5.80546 8.78105C6.32118 8.28095 7.02065 8 7.75 8H24.25C24.9793 8 25.6788 8.28095 26.1945 8.78105C26.7103 9.28115 27 9.95942 27 10.6667V17.3333H5V10.6667ZM20.8125 12C20.6302 12 20.4553 12.0702 20.3264 12.1953C20.1974 12.3203 20.125 12.4899 20.125 12.6667V14C20.125 14.1768 20.1974 14.3464 20.3264 14.4714C20.4553 14.5964 20.6302 14.6667 20.8125 14.6667H23.5625C23.7448 14.6667 23.9197 14.5964 24.0486 14.4714C24.1776 14.3464 24.25 14.1768 24.25 14V12.6667C24.25 12.4899 24.1776 12.3203 24.0486 12.1953C23.9197 12.0702 23.7448 12 23.5625 12H20.8125ZM5 20V21.3333C5 22.0406 5.28973 22.7189 5.80546 23.219C6.32118 23.719 7.02065 24 7.75 24H24.25C24.9793 24 25.6788 23.719 26.1945 23.219C26.7103 22.7189 27 22.0406 27 21.3333V20H5Z" fill="#ABB2BF"/>
  </g>

  <g id="envelope">
    <path d="M0.071875 2.20292C0.216801 1.57709 0.573067 1.01832 1.08232 0.618104C1.59158 0.217889 2.22365 -4.32004e-05 2.875 6.42336e-09H20.125C20.7764 -4.32004e-05 21.4084 0.217889 21.9177 0.618104C22.4269 1.01832 22.7832 1.57709 22.9281 2.20292L11.5 9.0865L0.071875 2.20292ZM0 3.82075V13.8847L8.34181 8.84425L0 3.82075ZM9.71894 9.67583L0.274563 15.3807C0.507907 15.8657 0.876195 16.2753 1.33656 16.5619C1.79693 16.8486 2.33044 17.0005 2.875 17H20.125C20.6695 17.0001 21.2028 16.8479 21.6629 16.561C22.123 16.274 22.491 15.8643 22.724 15.3793L13.2796 9.67442L11.5 10.7468L9.71894 9.67442V9.67583ZM14.6582 8.84567L23 13.8847V3.82075L14.6582 8.84425V8.84567Z" fill="#ABB2BF"/>
  </g>

  <g id="figma">
    <path d="M16 16C16 15.1159 16.3687 14.2681 17.0251 13.643C17.6815 13.0179 18.5717 12.6667 19.5 12.6667C20.4283 12.6667 21.3185 13.0179 21.9749 13.643C22.6313 14.2681 23 15.1159 23 16C23 16.8841 22.6313 17.7319 21.9749 18.357C21.3185 18.9821 20.4283 19.3333 19.5 19.3333C18.5717 19.3333 17.6815 18.9821 17.0251 18.357C16.3687 17.7319 16 16.8841 16 16ZM9 22.6667C9 21.7826 9.36875 20.9348 10.0251 20.3096C10.6815 19.6845 11.5717 19.3333 12.5 19.3333H16V22.6667C16 23.5507 15.6313 24.3986 14.9749 25.0237C14.3185 25.6488 13.4283 26 12.5 26C11.5717 26 10.6815 25.6488 10.0251 25.0237C9.36875 24.3986 9 23.5507 9 22.6667ZM16 6V12.6667H19.5C20.4283 12.6667 21.3185 12.3155 21.9749 11.6904C22.6313 11.0652 23 10.2174 23 9.33333C23 8.44928 22.6313 7.60143 21.9749 6.97631C21.3185 6.35119 20.4283 6 19.5 6H16ZM9 9.33333C9 10.2174 9.36875 11.0652 10.0251 11.6904C10.6815 12.3155 11.5717 12.6667 12.5 12.6667H16V6H12.5C11.5717 6 10.6815 6.35119 10.0251 6.97631C9.36875 7.60143 9 8.44928 9 9.33333ZM9 16C9 16.8841 9.36875 17.7319 10.0251 18.357C10.6815 18.9821 11.5717 19.3333 12.5 19.3333H16V12.6667H12.5C11.5717 12.6667 10.6815 13.0179 10.0251 13.643C9.36875 14.2681 9 15.1159 9 16Z" fill="#ABB2BF"/>
  </g>

  <g id="git">
    <path d="M10.5 0C4.69875 0 0 4.58819 0 10.2529C0 14.7899 3.00562 18.6219 7.17937 19.9804C7.70437 20.0701 7.90125 19.7625 7.90125 19.4934C7.90125 19.2499 7.88813 18.4425 7.88813 17.5838C5.25 18.058 4.5675 16.9558 4.3575 16.3791C4.23938 16.0843 3.7275 15.1743 3.28125 14.9308C2.91375 14.7386 2.38875 14.2644 3.26813 14.2516C4.095 14.2388 4.68563 14.9949 4.8825 15.3025C5.8275 16.8533 7.33688 16.4175 7.94063 16.1484C8.0325 15.4819 8.30812 15.0334 8.61 14.777C6.27375 14.5207 3.8325 13.6364 3.8325 9.71466C3.8325 8.59965 4.23938 7.67689 4.90875 6.95918C4.80375 6.70286 4.43625 5.65193 5.01375 4.24215C5.01375 4.24215 5.89313 3.97301 7.90125 5.29308C8.74125 5.06239 9.63375 4.94704 10.5263 4.94704C11.4188 4.94704 12.3113 5.06239 13.1513 5.29308C15.1594 3.9602 16.0387 4.24215 16.0387 4.24215C16.6163 5.65193 16.2488 6.70286 16.1438 6.95918C16.8131 7.67689 17.22 8.58684 17.22 9.71466C17.22 13.6492 14.7656 14.5207 12.4294 14.777C12.81 15.0975 13.1381 15.7126 13.1381 16.6738C13.1381 18.0452 13.125 19.1474 13.125 19.4934C13.125 19.7625 13.3219 20.0829 13.8469 19.9804C15.9314 19.2935 17.7428 17.9854 19.026 16.2403C20.3092 14.4953 20.9996 12.4012 21 10.2529C21 4.58819 16.3013 0 10.5 0Z" fill="#ABB2BF"/>
  </g>

  <g id="logo">
    <path xmlns="http://www.w3.org/2000/svg" fill-rule="evenodd" clip-rule="evenodd" d="M12 2.5H8V6.5H4H0V10.5V14.5V18.5H4H8V14.5H12H16V10.5V6.5V2.5H12ZM4 14.5H8V10.5H12V6.5H8V10.5H4V14.5Z" fill="white"/>
    <path xmlns="http://www.w3.org/2000/svg" d="M28.112 6.784V9.448H31.952V11.288H28.112V14.12H32.744V16H25.488V4.912H32.736L32.472 6.784H28.112ZM39.1458 4.128V13.328C39.1458 13.6693 39.2418 13.9147 39.4338 14.064C39.6311 14.208 39.9004 14.28 40.2418 14.28C40.4604 14.28 40.6711 14.256 40.8738 14.208C41.0764 14.1547 41.2658 14.0933 41.4418 14.024L42.0498 15.712C41.7618 15.8613 41.4151 15.992 41.0098 16.104C40.6044 16.216 40.1324 16.272 39.5938 16.272C38.5698 16.272 37.8178 15.9787 37.3378 15.392C36.8578 14.8 36.6178 14.008 36.6178 13.016V5.856H34.1138V4.128H39.1458ZM49.4995 7.504V14.272H51.6595V16H44.5635V14.272H46.9715V9.232H44.6435V7.504H49.4995ZM47.9715 3.056C48.4088 3.056 48.7662 3.192 49.0435 3.464C49.3208 3.736 49.4595 4.07467 49.4595 4.48C49.4595 4.88533 49.3208 5.22667 49.0435 5.504C48.7662 5.776 48.4088 5.912 47.9715 5.912C47.5288 5.912 47.1662 5.776 46.8835 5.504C46.6062 5.22667 46.4675 4.88533 46.4675 4.48C46.4675 4.07467 46.6062 3.736 46.8835 3.464C47.1662 3.192 47.5288 3.056 47.9715 3.056ZM61.0533 13.552C61.0533 13.872 61.0959 14.104 61.1813 14.248C61.2719 14.392 61.4159 14.5013 61.6133 14.576L61.0933 16.24C60.5919 16.192 60.1679 16.0827 59.8213 15.912C59.4799 15.736 59.2106 15.472 59.0133 15.12C58.6879 15.5093 58.2719 15.8 57.7653 15.992C57.2586 16.1787 56.7413 16.272 56.2133 16.272C55.3386 16.272 54.6399 16.024 54.1173 15.528C53.5999 15.0267 53.3413 14.384 53.3413 13.6C53.3413 12.6773 53.7013 11.9653 54.4213 11.464C55.1466 10.9627 56.1653 10.712 57.4773 10.712H58.6213V10.392C58.6213 9.94933 58.4773 9.62133 58.1893 9.408C57.9066 9.19467 57.4906 9.088 56.9413 9.088C56.6693 9.088 56.3199 9.128 55.8933 9.208C55.4666 9.28267 55.0399 9.392 54.6133 9.536L54.0293 7.856C54.5786 7.648 55.1493 7.49067 55.7413 7.384C56.3386 7.27733 56.8719 7.224 57.3413 7.224C58.6053 7.224 59.5386 7.48267 60.1413 8C60.7493 8.512 61.0533 9.25333 61.0533 10.224V13.552ZM57.0853 14.464C57.3573 14.464 57.6426 14.384 57.9413 14.224C58.2399 14.0587 58.4666 13.8267 58.6213 13.528V12.152H57.9973C57.2933 12.152 56.7759 12.2613 56.4453 12.48C56.1146 12.6933 55.9493 13.008 55.9493 13.424C55.9493 13.7493 56.0479 14.0053 56.2453 14.192C56.4479 14.3733 56.7279 14.464 57.0853 14.464ZM66.903 14.464C67.3243 14.464 67.663 14.3973 67.919 14.264C68.1803 14.1307 68.311 13.9307 68.311 13.664C68.311 13.4827 68.2603 13.3307 68.159 13.208C68.0577 13.0853 67.863 12.968 67.575 12.856C67.287 12.744 66.8603 12.6107 66.295 12.456C65.7777 12.3173 65.319 12.1413 64.919 11.928C64.5243 11.7147 64.215 11.44 63.991 11.104C63.7723 10.768 63.663 10.3493 63.663 9.848C63.663 9.34133 63.8043 8.89067 64.087 8.496C64.3697 8.10133 64.7857 7.792 65.335 7.568C65.8843 7.33867 66.5563 7.224 67.351 7.224C68.1083 7.224 68.767 7.32267 69.327 7.52C69.8923 7.712 70.3803 7.95733 70.791 8.256L69.783 9.744C69.431 9.52533 69.0523 9.352 68.647 9.224C68.2417 9.09067 67.8337 9.024 67.423 9.024C67.0123 9.024 66.7057 9.08 66.503 9.192C66.3057 9.29867 66.207 9.46133 66.207 9.68C66.207 9.824 66.2577 9.94933 66.359 10.056C66.4657 10.1573 66.663 10.264 66.951 10.376C67.239 10.4827 67.6603 10.616 68.215 10.776C68.7643 10.9307 69.2417 11.1093 69.647 11.312C70.0577 11.5147 70.375 11.7867 70.599 12.128C70.823 12.464 70.935 12.9093 70.935 13.464C70.935 14.0827 70.751 14.6027 70.383 15.024C70.015 15.44 69.527 15.752 68.919 15.96C68.311 16.168 67.6443 16.272 66.919 16.272C66.0977 16.272 65.3723 16.1547 64.743 15.92C64.1137 15.6853 63.5777 15.376 63.135 14.992L64.407 13.568C64.7377 13.824 65.111 14.0373 65.527 14.208C65.9483 14.3787 66.407 14.464 66.903 14.464Z" fill="white"/> 
  </g>

  <g id="mask">
    <path d="M21.1641 1.65906C19.543 0.878258 17.8325 0.320987 16.0751 0.00113909C16.0592 -0.00167518 16.0428 0.000755409 16.0283 0.00809674C16.0137 0.0154381 16.0017 0.0273296 15.9938 0.0421361C15.7735 0.452106 15.5298 0.988347 15.3595 1.40816C13.4651 1.10643 11.5383 1.10643 9.64391 1.40816C9.45393 0.940495 9.23901 0.484433 9.00017 0.0421361C8.99216 0.0274917 8.9801 0.0157372 8.9656 0.00841949C8.9511 0.00110175 8.93482 -0.00143631 8.91892 0.00113909C7.16113 0.319276 5.45021 0.876835 3.82991 1.65906C3.81605 1.66461 3.80445 1.67504 3.7971 1.68858C0.556508 6.77057 -0.332545 11.7279 0.103388 16.623C0.10495 16.6459 0.119013 16.6689 0.1362 16.6836C2.02325 18.1507 4.13396 19.2708 6.37832 19.9962C6.39417 20.0014 6.4112 20.0013 6.42693 19.9957C6.44267 19.99 6.45629 19.9793 6.46582 19.965C6.94707 19.2763 7.37519 18.5498 7.74393 17.7856C7.75162 17.7699 7.75425 17.752 7.75143 17.7345C7.74862 17.7171 7.74051 17.7011 7.72831 17.6889C7.72023 17.6809 7.71065 17.6747 7.70018 17.6708C7.027 17.3993 6.37503 17.0731 5.7502 16.6951C5.73275 16.6847 5.71977 16.6677 5.71395 16.6476C5.70814 16.6274 5.70993 16.6057 5.71895 16.5869C5.72427 16.5747 5.73231 16.564 5.74239 16.5557C5.87364 16.4524 6.00489 16.3442 6.12989 16.236C6.14093 16.2266 6.15418 16.2206 6.16821 16.2186C6.18225 16.2166 6.19655 16.2186 6.20957 16.2245C10.3017 18.1858 14.7314 18.1858 18.7735 16.2245C18.787 16.2183 18.8018 16.2162 18.8164 16.2182C18.831 16.2202 18.8448 16.2264 18.8563 16.236C18.9813 16.3442 19.1126 16.4524 19.2438 16.5557C19.2544 16.5639 19.263 16.5747 19.2687 16.5872C19.2744 16.5996 19.277 16.6134 19.2764 16.6272C19.2758 16.641 19.2719 16.6544 19.2651 16.6663C19.2584 16.6781 19.2489 16.688 19.2376 16.6951C18.6142 17.0765 17.9614 17.4024 17.286 17.6692C17.2752 17.6733 17.2655 17.6798 17.2574 17.6883C17.2493 17.6968 17.243 17.7071 17.2391 17.7184C17.2355 17.7294 17.2341 17.741 17.2349 17.7525C17.2357 17.7641 17.2387 17.7754 17.2438 17.7856C17.6188 18.5482 18.0485 19.2763 18.5204 19.965C18.5299 19.9793 18.5435 19.99 18.5593 19.9957C18.575 20.0013 18.592 20.0014 18.6079 19.9962C20.856 19.2731 22.9701 18.1528 24.8594 16.6836C24.8688 16.6768 24.8767 16.6677 24.8824 16.6572C24.8881 16.6467 24.8914 16.635 24.8922 16.623C25.4141 10.9637 24.0188 6.04738 21.1954 1.69022C21.1925 1.68302 21.1883 1.67653 21.1829 1.67116C21.1775 1.66579 21.1711 1.66167 21.1641 1.65906ZM8.35486 13.6417C7.12206 13.6417 6.10801 12.4544 6.10801 10.9982C6.10801 9.54032 7.10331 8.35305 8.35486 8.35305C9.61579 8.35305 10.6205 9.55016 10.6017 10.9982C10.6017 12.4544 9.60641 13.6417 8.35486 13.6417ZM16.661 13.6417C15.4298 13.6417 14.4142 12.4544 14.4142 10.9982C14.4142 9.54032 15.4095 8.35305 16.661 8.35305C17.922 8.35305 18.9282 9.55016 18.9079 10.9982C18.9079 12.4544 17.922 13.6417 16.661 13.6417Z" fill="#ABB2BF"/>
  </g>

  <g id="rectangleDots">
    <circle cx="2" cy="2" r="2" fill="#ABB2BF"/>
    <circle cx="27" cy="2" r="2" fill="#ABB2BF"/>
    <circle cx="52" cy="2" r="2" fill="#ABB2BF"/>
    <circle cx="77" cy="2" r="2" fill="#ABB2BF"/>
    <circle cx="102" cy="2" r="2" fill="#ABB2BF"/>
    <circle cx="2" cy="19.3334" r="2" fill="#ABB2BF"/>
    <circle cx="27" cy="19.3334" r="2" fill="#ABB2BF"/>
    <circle cx="52" cy="19.3334" r="2" fill="#ABB2BF"/>
    <circle cx="77" cy="19.3334" r="2" fill="#ABB2BF"/>
    <circle cx="102" cy="19.3334" r="2" fill="#ABB2BF"/>
    <circle cx="2" cy="36.6666" r="2" fill="#ABB2BF"/>
    <circle cx="27" cy="36.6666" r="2" fill="#ABB2BF"/>
    <circle cx="52" cy="36.6666" r="2" fill="#ABB2BF"/>
    <circle cx="77" cy="36.6666" r="2" fill="#ABB2BF"/>
    <circle cx="102" cy="36.6666" r="2" fill="#ABB2BF"/>
    <circle cx="2" cy="54" r="2" fill="#ABB2BF"/>
    <circle cx="27" cy="54" r="2" fill="#ABB2BF"/>
    <circle cx="52" cy="54" r="2" fill="#ABB2BF"/>
    <circle cx="77" cy="54" r="2" fill="#ABB2BF"/>
    <circle cx="102" cy="54" r="2" fill="#ABB2BF"/>
  </g>

  <g id="squareDots">
    <circle cx="2" cy="2" r="2" fill="#ABB2BF"/>
    <circle cx="22" cy="2" r="2" fill="#ABB2BF"/>
    <circle cx="42" cy="2" r="2" fill="#ABB2BF"/>
    <circle cx="62" cy="2" r="2" fill="#ABB2BF"/>
    <circle cx="82" cy="2" r="2" fill="#ABB2BF"/>
    <circle cx="2" cy="22" r="2" fill="#ABB2BF"/>
    <circle cx="22" cy="22" r="2" fill="#ABB2BF"/>
    <circle cx="42" cy="22" r="2" fill="#ABB2BF"/>
    <circle cx="62" cy="22" r="2" fill="#ABB2BF"/>
    <circle cx="82" cy="22" r="2" fill="#ABB2BF"/>
    <circle cx="2" cy="42" r="2" fill="#ABB2BF"/>
    <circle cx="22" cy="42" r="2" fill="#ABB2BF"/>
    <circle cx="42" cy="42" r="2" fill="#ABB2BF"/>
    <circle cx="62" cy="42" r="2" fill="#ABB2BF"/>
    <circle cx="82" cy="42" r="2" fill="#ABB2BF"/>
    <circle cx="2" cy="62" r="2" fill="#ABB2BF"/>
    <circle cx="22" cy="62" r="2" fill="#ABB2BF"/>
    <circle cx="42" cy="62" r="2" fill="#ABB2BF"/>
    <circle cx="62" cy="62" r="2" fill="#ABB2BF"/>
    <circle cx="82" cy="62" r="2" fill="#ABB2BF"/>
    <circle cx="2" cy="82" r="2" fill="#ABB2BF"/>
    <circle cx="22" cy="82" r="2" fill="#ABB2BF"/>
    <circle cx="42" cy="82" r="2" fill="#ABB2BF"/>
    <circle cx="62" cy="82" r="2" fill="#ABB2BF"/>
    <circle cx="82" cy="82" r="2" fill="#ABB2BF"/>
  </g>

  <g id="twitter">
    <path d="M7.22487 19C15.9045 19 20.6526 11.6883 20.6526 5.35873C20.6526 5.15412 20.6526 4.9466 20.6439 4.74199C21.5683 4.06166 22.3661 3.21937 23 2.25459C22.1365 2.64165 21.2215 2.89676 20.2846 3.01162C21.2715 2.41189 22.0106 1.46827 22.3646 0.356148C21.4374 0.914607 20.4226 1.30664 19.3646 1.51509C18.6533 0.744931 17.712 0.234726 16.6866 0.0635014C15.6612 -0.107724 14.6089 0.0695869 13.6927 0.567968C12.7764 1.06635 12.0474 1.85799 11.6185 2.82026C11.1896 3.78253 11.0848 4.86173 11.3203 5.8907C9.444 5.79505 7.60842 5.29949 5.93262 4.43617C4.25682 3.57285 2.77823 2.36104 1.59275 0.879351C0.990926 1.93611 0.807262 3.18612 1.07905 4.37555C1.35085 5.56499 2.05772 6.60467 3.05612 7.28347C2.30796 7.25763 1.57625 7.05338 0.92 6.68719V6.75296C0.92129 7.85999 1.2985 8.93261 1.98788 9.78952C2.67726 10.6464 3.63651 11.2351 4.7035 11.4559C4.2985 11.5694 3.88014 11.6259 3.46006 11.624C3.16391 11.6249 2.86836 11.597 2.57744 11.5407C2.87901 12.4937 3.46621 13.3269 4.25679 13.9236C5.04738 14.5203 6.00176 14.8507 6.98625 14.8685C5.3138 16.2039 3.24789 16.9282 1.12125 16.9247C0.746524 16.9263 0.372058 16.9044 0 16.859C2.15843 18.258 4.66512 19.0008 7.22487 19Z" fill="#ABB2BF"/>
  </g>

  <g id="union">
    <path fill-rule="evenodd" clip-rule="evenodd" d="M12 0.5H8V4.5H4H0V8.5V12.5V16.5H4H8V12.5H12H16V8.5V4.5V0.5H12ZM4 12.5H8V8.5H12V4.5H8V8.5H4V12.5Z" fill="white"/>
  </g>

</svg>
