<!-- social arrows quotes-->

<svg width="26" height="21" viewBox="0 0 26 21" fill="none" xmlns="http://www.w3.org/2000/svg">

  <g id="ball">
    <path fill-rule="evenodd" clip-rule="evenodd" d="M11.5 0C5.152 0 0 5.152 0 11.5C0 17.848 5.152 23 11.5 23C17.8365 23 23 17.848 23 11.5C23 5.152 17.8365 0 11.5 0ZM19.0958 5.3015C20.5115 7.02546 21.2951 9.18167 21.3167 11.4123C20.9918 11.3505 17.7488 10.6892 14.4814 11.1004C14.4066 10.9394 14.3434 10.764 14.2686 10.5901C14.0688 10.1157 13.8446 9.62981 13.6203 9.16694C17.2371 7.69637 18.8844 5.57606 19.0972 5.30006L19.0958 5.3015ZM11.5 1.69625C13.9941 1.69625 16.2768 2.63063 18.0119 4.16587C17.8365 4.416 16.3516 6.39831 12.8599 7.70787C11.2499 4.75238 9.46737 2.33162 9.19281 1.95788C9.94909 1.78129 10.7234 1.69349 11.5 1.69625ZM7.32119 2.61913C8.63747 4.44338 9.85348 6.33793 10.9638 8.29438C6.37387 9.51625 2.32012 9.49181 1.88312 9.49181C2.19917 8.00504 2.85438 6.61137 3.79766 5.41949C4.74094 4.22761 5.9468 3.26973 7.32119 2.62056V2.61913ZM1.67181 11.5144V11.2125C2.09588 11.2269 6.86119 11.2887 11.7631 9.81669C12.0491 10.3644 12.3108 10.9264 12.5609 11.4871L12.1728 11.5992C7.10988 13.2336 4.416 17.6985 4.19031 18.0737C2.56856 16.2734 1.67131 13.936 1.67181 11.5129V11.5144ZM11.5 21.3282C9.31723 21.3316 7.19639 20.6027 5.47687 19.2582C5.64937 18.8959 7.64606 15.0549 13.1833 13.1215C13.2092 13.1086 13.2207 13.1086 13.2466 13.0971C14.1801 15.5068 14.8814 18.0002 15.341 20.5433C14.1277 21.0646 12.8205 21.3318 11.5 21.3282ZM16.9769 19.6449C16.8763 19.0454 16.3516 16.1776 15.0679 12.6471C18.1484 12.1613 20.8423 12.9591 21.1787 13.0712C20.9692 14.3975 20.4876 15.6662 19.7643 16.7974C19.0409 17.9287 18.0914 18.8982 16.9754 19.6449H16.9769Z" fill="#ABB2BF"/>
  </g>

  <g id="bitcoin">
    <path d="M12.1324 25.2308V27.5385C12.1324 27.7932 12.3382 28 12.5919 28H14.4301C14.552 28 14.6689 27.9514 14.7551 27.8648C14.8413 27.7783 14.8897 27.6609 14.8897 27.5385V25.2308H15.8088V27.5385C15.8088 27.7932 16.0147 28 16.2684 28H18.1066C18.2285 28 18.3454 27.9514 18.4316 27.8648C18.5178 27.7783 18.5662 27.6609 18.5662 27.5385V25.2308H18.7206C22.3824 25.2308 25 23.3237 25 20.0246C25 17.2517 23.1489 15.736 20.9816 15.52V15.3575C22.7647 14.9108 24.0754 13.5594 24.0754 11.3145C24.0754 8.48615 21.9614 6.76923 18.7353 6.76923H18.5662V4.46154C18.5662 4.33913 18.5178 4.22174 18.4316 4.13518C18.3454 4.04863 18.2285 4 18.1066 4H16.2684C16.1465 4 16.0296 4.04863 15.9434 4.13518C15.8572 4.22174 15.8088 4.33913 15.8088 4.46154V6.76923H14.7555V4.46154C14.7555 4.33913 14.7071 4.22174 14.6209 4.13518C14.5347 4.04863 14.4178 4 14.296 4H12.5919C12.47 4 12.3531 4.04863 12.267 4.13518C12.1808 4.22174 12.1324 4.33913 12.1324 4.46154V6.76923L8.45956 6.78954C8.33768 6.78954 8.22079 6.83816 8.1346 6.92472C8.04842 7.01128 8 7.12867 8 7.25108V9.07692C8 9.32985 8.20221 9.53846 8.45588 9.53846L9.84375 9.52923C10.2078 9.53167 10.5561 9.67862 10.8127 9.93802C11.0693 10.1974 11.2132 10.5482 11.2132 10.9138V21.0769C11.2132 21.4441 11.068 21.7963 10.8094 22.056C10.5509 22.3157 10.2002 22.4615 9.83456 22.4615L8.45956 22.4818C8.33768 22.4818 8.22079 22.5305 8.1346 22.617C8.04842 22.7036 8 22.821 8 22.9434V24.7895C8 25.0443 8.20588 25.2511 8.45956 25.2511L12.1324 25.2308ZM14.7555 9.51446H17.9154C19.5809 9.51446 20.5588 10.4338 20.5588 11.9366C20.5588 13.5446 19.5018 14.4511 17.1085 14.4511H14.7555V9.51446ZM14.7555 16.9932H18.1379C20.2279 16.9932 21.3658 18.064 21.3658 19.8068C21.3658 21.5662 20.2151 22.4837 17.3989 22.4837H14.7555V16.9951V16.9932Z" fill="#ABB2BF"/>
  </g>

  <g id="card">
    <path d="M5 10.6667C5 9.95942 5.28973 9.28115 5.80546 8.78105C6.32118 8.28095 7.02065 8 7.75 8H24.25C24.9793 8 25.6788 8.28095 26.1945 8.78105C26.7103 9.28115 27 9.95942 27 10.6667V17.3333H5V10.6667ZM20.8125 12C20.6302 12 20.4553 12.0702 20.3264 12.1953C20.1974 12.3203 20.125 12.4899 20.125 12.6667V14C20.125 14.1768 20.1974 14.3464 20.3264 14.4714C20.4553 14.5964 20.6302 14.6667 20.8125 14.6667H23.5625C23.7448 14.6667 23.9197 14.5964 24.0486 14.4714C24.1776 14.3464 24.25 14.1768 24.25 14V12.6667C24.25 12.4899 24.1776 12.3203 24.0486 12.1953C23.9197 12.0702 23.7448 12 23.5625 12H20.8125ZM5 20V21.3333C5 22.0406 5.28973 22.7189 5.80546 23.219C6.32118 23.719 7.02065 24 7.75 24H24.25C24.9793 24 25.6788 23.719 26.1945 23.219C26.7103 22.7189 27 22.0406 27 21.3333V20H5Z" fill="#ABB2BF"/>
  </g>

  <g id="envelope">
    <path d="M0.071875 2.20292C0.216801 1.57709 0.573067 1.01832 1.08232 0.618104C1.59158 0.217889 2.22365 -4.32004e-05 2.875 6.42336e-09H20.125C20.7764 -4.32004e-05 21.4084 0.217889 21.9177 0.618104C22.4269 1.01832 22.7832 1.57709 22.9281 2.20292L11.5 9.0865L0.071875 2.20292ZM0 3.82075V13.8847L8.34181 8.84425L0 3.82075ZM9.71894 9.67583L0.274563 15.3807C0.507907 15.8657 0.876195 16.2753 1.33656 16.5619C1.79693 16.8486 2.33044 17.0005 2.875 17H20.125C20.6695 17.0001 21.2028 16.8479 21.6629 16.561C22.123 16.274 22.491 15.8643 22.724 15.3793L13.2796 9.67442L11.5 10.7468L9.71894 9.67442V9.67583ZM14.6582 8.84567L23 13.8847V3.82075L14.6582 8.84425V8.84567Z" fill="#ABB2BF"/>
  </g>




  
  <g id="logo">
    <path xmlns="http://www.w3.org/2000/svg" fill-rule="evenodd" clip-rule="evenodd" d="M12 0.5H8V4.5H4H0V8.5V12.5V16.5H4H8V12.5H12H16V8.5V4.5V0.5H12ZM4 12.5H8V8.5H12V4.5H8V8.5H4V12.5Z" fill="white"/>
  </g>

  <g id="arrowUp">
    <line x1="9.29289" y1="5.70711" x2="4.29289" y2="0.707106" stroke="#ABB2BF" stroke-width="2"/>
    <line x1="5.70711" y1="0.707107" x2="0.707106" y2="5.70711" stroke="#ABB2BF" stroke-width="2"/>
  </g>

  <g id="arrowDown">
    <line x1="0.707107" y1="1.29289" x2="5.70711" y2="6.29289" stroke="#ABB2BF" stroke-width="2"/>
    <line x1="4.29289" y1="6.29289" x2="9.29289" y2="1.29289" stroke="#ABB2BF" stroke-width="2"/>
  </g>

  <g id="twitter">
    <path d="M7.22487 19C15.9045 19 20.6526 11.6883 20.6526 5.35873C20.6526 5.15412 20.6526 4.9466 20.6439 4.74199C21.5683 4.06166 22.3661 3.21937 23 2.25459C22.1365 2.64165 21.2215 2.89676 20.2846 3.01162C21.2715 2.41189 22.0106 1.46827 22.3646 0.356148C21.4374 0.914607 20.4226 1.30664 19.3646 1.51509C18.6533 0.744931 17.712 0.234726 16.6866 0.0635014C15.6612 -0.107724 14.6089 0.0695869 13.6927 0.567968C12.7764 1.06635 12.0474 1.85799 11.6185 2.82026C11.1896 3.78253 11.0848 4.86173 11.3203 5.8907C9.444 5.79505 7.60842 5.29949 5.93262 4.43617C4.25682 3.57285 2.77823 2.36104 1.59275 0.879351C0.990926 1.93611 0.807262 3.18612 1.07905 4.37555C1.35085 5.56499 2.05772 6.60467 3.05612 7.28347C2.30796 7.25763 1.57625 7.05338 0.92 6.68719V6.75296C0.92129 7.85999 1.2985 8.93261 1.98788 9.78952C2.67726 10.6464 3.63651 11.2351 4.7035 11.4559C4.2985 11.5694 3.88014 11.6259 3.46006 11.624C3.16391 11.6249 2.86836 11.597 2.57744 11.5407C2.87901 12.4937 3.46621 13.3269 4.25679 13.9236C5.04738 14.5203 6.00176 14.8507 6.98625 14.8685C5.3138 16.2039 3.24789 16.9282 1.12125 16.9247C0.746524 16.9263 0.372058 16.9044 0 16.859C2.15843 18.258 4.66512 19.0008 7.22487 19Z" fill="#ABB2BF"/>
  </g>

  <g id="union">
    <path fill-rule="evenodd" clip-rule="evenodd" d="M12 0.5H8V4.5H4H0V8.5V12.5V16.5H4H8V12.5H12H16V8.5V4.5V0.5H12ZM4 12.5H8V8.5H12V4.5H8V8.5H4V12.5Z" fill="white"/>
  </g>
<!--   ===========================================в проекте========================================   -->
  <g id="sun">
    <path d="M27.0968 0.531616C25.2139 0.531616 23.7345 2.01102 23.7345 3.89389C23.7345 5.77677 25.2139 7.25617 27.0968 7.25617C28.9797 7.25617 30.4591 5.77677 30.4591 3.89389C30.4591 2.01102 28.9797 0.531616 27.0968 0.531616ZM10.2854 7.25617C8.40256 7.25617 6.92316 8.73557 6.92316 10.6184C6.92316 12.5013 8.40256 13.9807 10.2854 13.9807C12.1683 13.9807 13.6477 12.5013 13.6477 10.6184C13.6477 8.73557 12.1683 7.25617 10.2854 7.25617ZM43.9082 7.25617C42.0253 7.25617 40.5459 8.73557 40.5459 10.6184C40.5459 12.5013 42.0253 13.9807 43.9082 13.9807C45.7911 13.9807 47.2705 12.5013 47.2705 10.6184C47.2705 8.73557 45.7911 7.25617 43.9082 7.25617ZM27.0968 13.9807C19.6998 13.9807 13.6477 20.0328 13.6477 27.4298C13.6477 34.8268 19.6998 40.8789 27.0968 40.8789C34.4938 40.8789 40.5459 34.8268 40.5459 27.4298C40.5459 20.0328 34.4938 13.9807 27.0968 13.9807ZM3.56088 24.0675C1.67801 24.0675 0.198608 25.547 0.198608 27.4298C0.198608 29.3127 1.67801 30.7921 3.56088 30.7921C5.44376 30.7921 6.92316 29.3127 6.92316 27.4298C6.92316 25.547 5.44376 24.0675 3.56088 24.0675ZM50.6327 24.0675C48.7499 24.0675 47.2705 25.547 47.2705 27.4298C47.2705 29.3127 48.7499 30.7921 50.6327 30.7921C52.5156 30.7921 53.995 29.3127 53.995 27.4298C53.995 25.547 52.5156 24.0675 50.6327 24.0675ZM10.2854 40.8789C8.40256 40.8789 6.92316 42.3583 6.92316 44.2412C6.92316 46.1241 8.40256 47.6035 10.2854 47.6035C12.1683 47.6035 13.6477 46.1241 13.6477 44.2412C13.6477 42.3583 12.1683 40.8789 10.2854 40.8789ZM43.9082 40.8789C42.0253 40.8789 40.5459 42.3583 40.5459 44.2412C40.5459 46.1241 42.0253 47.6035 43.9082 47.6035C45.7911 47.6035 47.2705 46.1241 47.2705 44.2412C47.2705 42.3583 45.7911 40.8789 43.9082 40.8789ZM27.0968 47.6035C25.2139 47.6035 23.7345 49.0829 23.7345 50.9658C23.7345 52.8486 25.2139 54.328 27.0968 54.328C28.9797 54.328 30.4591 52.8486 30.4591 50.9658C30.4591 49.0829 28.9797 47.6035 27.0968 47.6035Z" fill="#ABB2BF"/>
  </g>

  <g id="moon">
    <path d="M18.808 0C7.88277 3.66479 0 13.9677 0 26.1376C0 41.4191 12.3773 53.7964 27.6588 53.7964C39.8287 53.7964 50.1316 45.9136 53.7964 34.9884C51.0305 35.8873 48.0572 36.5097 44.9456 36.5097C29.6641 36.5097 17.2868 24.1323 17.2868 8.85082C17.2868 5.73921 17.8399 2.76588 18.808 0Z" fill="#ABB2BF"/>
  </g>

  <g id="line">
    <path fill-rule="evenodd" clip-rule="evenodd" d="M511 1.5H0V0.5H511V1.5Z" fill="#C778DD" />
  </g>

  <g id="squareDots">
    <circle cx="2" cy="2" r="2" fill="#ABB2BF"/>
    <circle cx="22" cy="2" r="2" fill="#ABB2BF"/>
    <circle cx="42" cy="2" r="2" fill="#ABB2BF"/>
    <circle cx="62" cy="2" r="2" fill="#ABB2BF"/>
    <circle cx="82" cy="2" r="2" fill="#ABB2BF"/>
    <circle cx="2" cy="22" r="2" fill="#ABB2BF"/>
    <circle cx="22" cy="22" r="2" fill="#ABB2BF"/>
    <circle cx="42" cy="22" r="2" fill="#ABB2BF"/>
    <circle cx="62" cy="22" r="2" fill="#ABB2BF"/>
    <circle cx="82" cy="22" r="2" fill="#ABB2BF"/>
    <circle cx="2" cy="42" r="2" fill="#ABB2BF"/>
    <circle cx="22" cy="42" r="2" fill="#ABB2BF"/>
    <circle cx="42" cy="42" r="2" fill="#ABB2BF"/>
    <circle cx="62" cy="42" r="2" fill="#ABB2BF"/>
    <circle cx="82" cy="42" r="2" fill="#ABB2BF"/>
    <circle cx="2" cy="62" r="2" fill="#ABB2BF"/>
    <circle cx="22" cy="62" r="2" fill="#ABB2BF"/>
    <circle cx="42" cy="62" r="2" fill="#ABB2BF"/>
    <circle cx="62" cy="62" r="2" fill="#ABB2BF"/>
    <circle cx="82" cy="62" r="2" fill="#ABB2BF"/>
    <circle cx="2" cy="82" r="2" fill="#ABB2BF"/>
    <circle cx="22" cy="82" r="2" fill="#ABB2BF"/>
    <circle cx="42" cy="82" r="2" fill="#ABB2BF"/>
    <circle cx="62" cy="82" r="2" fill="#ABB2BF"/>
    <circle cx="82" cy="82" r="2" fill="#ABB2BF"/>
  </g>

  <g id="logoBig">
    <mask id="path-1-inside-1_1103_3692" fill="white">
      <path fill-rule="evenodd" clip-rule="evenodd" d="M0 39.75H38.75H77.5V78.5H38.75V117.25H77.5V156H38.75H0V117.25V78.5V39.75Z"/>
    </mask>
    <path d="M0 39.75V38.75H-1V39.75H0ZM77.5 39.75H78.5V38.75H77.5V39.75ZM77.5 78.5V79.5H78.5V78.5H77.5ZM38.75 78.5V77.5H37.75V78.5H38.75ZM38.75 117.25H37.75V118.25H38.75V117.25ZM77.5 117.25H78.5V116.25H77.5V117.25ZM77.5 156V157H78.5V156H77.5ZM0 156H-1V157H0V156ZM38.75 38.75H0V40.75H38.75V38.75ZM77.5 38.75H38.75V40.75H77.5V38.75ZM78.5 78.5V39.75H76.5V78.5H78.5ZM38.75 79.5H77.5V77.5H38.75V79.5ZM39.75 117.25V78.5H37.75V117.25H39.75ZM38.75 118.25H77.5V116.25H38.75V118.25ZM76.5 117.25V156H78.5V117.25H76.5ZM77.5 155H38.75V157H77.5V155ZM0 157H38.75V155H0V157ZM-1 117.25V156H1V117.25H-1ZM-1 78.5V117.25H1V78.5H-1ZM-1 39.75V78.5H1V39.75H-1Z" fill="#C778DD" mask="url(#path-1-inside-1_1103_3692)"/>
    <mask id="path-3-outside-2_1103_3692" maskUnits="userSpaceOnUse" x="76.5" y="0" width="80" height="119" fill="black">
      <rect fill="white" x="76.5" width="80" height="119"/>
      <path fill-rule="evenodd" clip-rule="evenodd" d="M77.5 1H116.25H155V39.75V78.5V117.25H116.25H77.5V78.5H116.25V39.75H77.5V1Z"/>
    </mask>
    <path d="M77.5 1V0H76.5V1H77.5ZM155 1H156V0H155V1ZM155 117.25V118.25H156V117.25H155ZM77.5 117.25H76.5V118.25H77.5V117.25ZM77.5 78.5V77.5H76.5V78.5H77.5ZM116.25 78.5V79.5H117.25V78.5H116.25ZM116.25 39.75H117.25V38.75H116.25V39.75ZM77.5 39.75H76.5V40.75H77.5V39.75ZM116.25 0H77.5V2H116.25V0ZM155 0H116.25V2H155V0ZM156 39.75V1H154V39.75H156ZM156 78.5V39.75H154V78.5H156ZM156 117.25V78.5H154V117.25H156ZM116.25 118.25H155V116.25H116.25V118.25ZM116.25 116.25H77.5V118.25H116.25V116.25ZM78.5 117.25V78.5H76.5V117.25H78.5ZM77.5 79.5H116.25V77.5H77.5V79.5ZM115.25 39.75V78.5H117.25V39.75H115.25ZM77.5 40.75H116.25V38.75H77.5V40.75ZM76.5 1V39.75H78.5V1H76.5Z" fill="#C778DD" mask="url(#path-3-outside-2_1103_3692)"/>
  </g>

  <g id="discord">
    <path d="M24.1641 7.65906C22.543 6.87826 20.8325 6.32099 19.0751 6.00114C19.0592 5.99832 19.0428 6.00076 19.0283 6.0081C19.0137 6.01544 19.0017 6.02733 18.9938 6.04214C18.7735 6.45211 18.5298 6.98835 18.3595 7.40816C16.4651 7.10643 14.5383 7.10643 12.6439 7.40816C12.4539 6.9405 12.239 6.48443 12.0002 6.04214C11.9922 6.02749 11.9801 6.01574 11.9656 6.00842C11.9511 6.0011 11.9348 5.99856 11.9189 6.00114C10.1611 6.31928 8.45021 6.87684 6.82991 7.65906C6.81605 7.66461 6.80445 7.67504 6.7971 7.68858C3.55651 12.7706 2.66745 17.7279 3.10339 22.623C3.10495 22.6459 3.11901 22.6689 3.1362 22.6836C5.02325 24.1507 7.13396 25.2708 9.37832 25.9962C9.39417 26.0014 9.4112 26.0013 9.42693 25.9957C9.44267 25.99 9.45629 25.9793 9.46582 25.965C9.94707 25.2763 10.3752 24.5498 10.7439 23.7856C10.7516 23.7699 10.7543 23.752 10.7514 23.7345C10.7486 23.7171 10.7405 23.7011 10.7283 23.6889C10.7202 23.6809 10.7107 23.6747 10.7002 23.6708C10.027 23.3993 9.37503 23.0731 8.7502 22.6951C8.73275 22.6847 8.71977 22.6677 8.71395 22.6476C8.70814 22.6274 8.70993 22.6057 8.71895 22.5869C8.72427 22.5747 8.73231 22.564 8.74239 22.5557C8.87364 22.4524 9.00489 22.3442 9.12989 22.236C9.14093 22.2266 9.15418 22.2206 9.16821 22.2186C9.18225 22.2166 9.19655 22.2186 9.20957 22.2245C13.3017 24.1858 17.7314 24.1858 21.7735 22.2245C21.787 22.2183 21.8018 22.2162 21.8164 22.2182C21.831 22.2202 21.8448 22.2264 21.8563 22.236C21.9813 22.3442 22.1126 22.4524 22.2438 22.5557C22.2544 22.5639 22.263 22.5747 22.2687 22.5872C22.2744 22.5996 22.277 22.6134 22.2764 22.6272C22.2758 22.641 22.2719 22.6544 22.2651 22.6663C22.2584 22.6781 22.2489 22.688 22.2376 22.6951C21.6142 23.0765 20.9614 23.4024 20.286 23.6692C20.2752 23.6733 20.2655 23.6798 20.2574 23.6883C20.2493 23.6968 20.243 23.7071 20.2391 23.7184C20.2355 23.7294 20.2341 23.741 20.2349 23.7525C20.2357 23.7641 20.2387 23.7754 20.2438 23.7856C20.6188 24.5482 21.0485 25.2763 21.5204 25.965C21.5299 25.9793 21.5435 25.99 21.5593 25.9957C21.575 26.0013 21.592 26.0014 21.6079 25.9962C23.856 25.2731 25.9701 24.1528 27.8594 22.6836C27.8688 22.6768 27.8767 22.6677 27.8824 22.6572C27.8881 22.6467 27.8914 22.635 27.8922 22.623C28.4141 16.9637 27.0188 12.0474 24.1954 7.69022C24.1925 7.68302 24.1883 7.67653 24.1829 7.67116C24.1775 7.66579 24.1711 7.66167 24.1641 7.65906ZM11.3549 19.6417C10.1221 19.6417 9.10801 18.4544 9.10801 16.9982C9.10801 15.5403 10.1033 14.353 11.3549 14.353C12.6158 14.353 13.6205 15.5502 13.6017 16.9982C13.6017 18.4544 12.6064 19.6417 11.3549 19.6417ZM19.661 19.6417C18.4298 19.6417 17.4142 18.4544 17.4142 16.9982C17.4142 15.5403 18.4095 14.353 19.661 14.353C20.922 14.353 21.9282 15.5502 21.9079 16.9982C21.9079 18.4544 20.922 19.6417 19.661 19.6417Z" fill="#ABB2BF" />
  </g>

  <g id="email">
    <path d="M5.07187 9.20292C5.2168 8.57709 5.57307 8.01832 6.08232 7.6181C6.59158 7.21789 7.22365 6.99996 7.875 7H25.125C25.7764 6.99996 26.4084 7.21789 26.9177 7.6181C27.4269 8.01832 27.7832 8.57709 27.9281 9.20292L16.5 16.0865L5.07187 9.20292ZM5 10.8207V20.8847L13.3418 15.8442L5 10.8207ZM14.7189 16.6758L5.27456 22.3807C5.50791 22.8657 5.87619 23.2753 6.33656 23.5619C6.79693 23.8486 7.33044 24.0005 7.875 24H25.125C25.6695 24.0001 26.2028 23.8479 26.6629 23.561C27.123 23.274 27.491 22.8643 27.724 22.3793L18.2796 16.6744L16.5 17.7468L14.7189 16.6744V16.6758ZM19.6582 15.8457L28 20.8847V10.8207L19.6582 15.8442V15.8457Z" fill="#ABB2BF" />
  </g>

  <g id="github">
    <path d="M15.5 6C9.69875 6 5 10.5882 5 16.2529C5 20.7899 8.00562 24.6219 12.1794 25.9804C12.7044 26.0701 12.9012 25.7625 12.9012 25.4934C12.9012 25.2499 12.8881 24.4425 12.8881 23.5838C10.25 24.058 9.5675 22.9558 9.3575 22.3791C9.23938 22.0843 8.7275 21.1743 8.28125 20.9308C7.91375 20.7386 7.38875 20.2644 8.26813 20.2516C9.095 20.2388 9.68563 20.9949 9.8825 21.3025C10.8275 22.8533 12.3369 22.4175 12.9406 22.1484C13.0325 21.4819 13.3081 21.0334 13.61 20.777C11.2737 20.5207 8.8325 19.6364 8.8325 15.7147C8.8325 14.5997 9.23938 13.6769 9.90875 12.9592C9.80375 12.7029 9.43625 11.6519 10.0138 10.2422C10.0138 10.2422 10.8931 9.97301 12.9012 11.2931C13.7413 11.0624 14.6338 10.947 15.5263 10.947C16.4188 10.947 17.3113 11.0624 18.1513 11.2931C20.1594 9.9602 21.0387 10.2422 21.0387 10.2422C21.6163 11.6519 21.2488 12.7029 21.1438 12.9592C21.8131 13.6769 22.22 14.5868 22.22 15.7147C22.22 19.6492 19.7656 20.5207 17.4294 20.777C17.81 21.0975 18.1381 21.7126 18.1381 22.6738C18.1381 24.0452 18.125 25.1474 18.125 25.4934C18.125 25.7625 18.3219 26.0829 18.8469 25.9804C20.9314 25.2935 22.7428 23.9854 24.026 22.2403C25.3092 20.4953 25.9996 18.4012 26 16.2529C26 10.5882 21.3013 6 15.5 6Z" fill="#ABB2BF" />
  </g>

  <g id="figma">
    <path d="M16 16C16 15.1159 16.3687 14.2681 17.0251 13.643C17.6815 13.0179 18.5717 12.6667 19.5 12.6667C20.4283 12.6667 21.3185 13.0179 21.9749 13.643C22.6313 14.2681 23 15.1159 23 16C23 16.8841 22.6313 17.7319 21.9749 18.357C21.3185 18.9821 20.4283 19.3333 19.5 19.3333C18.5717 19.3333 17.6815 18.9821 17.0251 18.357C16.3687 17.7319 16 16.8841 16 16ZM9 22.6667C9 21.7826 9.36875 20.9348 10.0251 20.3096C10.6815 19.6845 11.5717 19.3333 12.5 19.3333H16V22.6667C16 23.5507 15.6313 24.3986 14.9749 25.0237C14.3185 25.6488 13.4283 26 12.5 26C11.5717 26 10.6815 25.6488 10.0251 25.0237C9.36875 24.3986 9 23.5507 9 22.6667ZM16 6V12.6667H19.5C20.4283 12.6667 21.3185 12.3155 21.9749 11.6904C22.6313 11.0652 23 10.2174 23 9.33333C23 8.44928 22.6313 7.60143 21.9749 6.97631C21.3185 6.35119 20.4283 6 19.5 6H16ZM9 9.33333C9 10.2174 9.36875 11.0652 10.0251 11.6904C10.6815 12.3155 11.5717 12.6667 12.5 12.6667H16V6H12.5C11.5717 6 10.6815 6.35119 10.0251 6.97631C9.36875 7.60143 9 8.44928 9 9.33333ZM9 16C9 16.8841 9.36875 17.7319 10.0251 18.357C10.6815 18.9821 11.5717 19.3333 12.5 19.3333H16V12.6667H12.5C11.5717 12.6667 10.6815 13.0179 10.0251 13.643C9.36875 14.2681 9 15.1159 9 16Z" fill="#ABB2BF"/>
  </g>
</svg>
