<svg width="35" height="27" viewBox="0 0 35 27" fill="green" xmlns="http://www.w3.org/2000/svg">
<path d="M0.466553 0.679199V26.8918H34.5429V0.679199H0.466553ZM3.08781 3.30046H31.9217V24.2705H27.4577C27.3554 24.091 27.4013 23.8459 27.2519 23.6965C26.7578 23.2011 26.054 22.9599 25.3685 22.9599C24.6831 22.9599 23.9806 23.2011 23.4838 23.6978C23.3357 23.8459 23.3816 24.091 23.2794 24.2705H11.7301C11.6279 24.091 11.6738 23.8459 11.5257 23.6965C11.0276 23.2011 10.3264 22.9599 9.64096 22.9599C8.95551 22.9599 8.25301 23.2011 7.75628 23.6978C7.60818 23.8459 7.65405 24.091 7.55182 24.2705H3.08781V3.30046ZM12.2622 5.92172C9.37884 5.92172 7.0197 8.28086 7.0197 11.1642C7.0197 12.623 7.64488 13.9388 8.61736 14.8917C7.72565 15.4941 6.99459 16.3052 6.48773 17.2545C5.98088 18.2038 5.71358 19.2625 5.70907 20.3387H8.33033C8.33033 19.2959 8.74459 18.2958 9.48196 17.5584C10.2193 16.821 11.2194 16.4068 12.2622 16.4068C13.305 16.4068 14.3051 16.821 15.0425 17.5584C15.7799 18.2958 16.1941 19.2959 16.1941 20.3387H18.8154C18.8109 19.2625 18.5436 18.2038 18.0367 17.2545C17.5299 16.3052 16.7988 15.4941 15.9071 14.8917C16.8796 13.9388 17.5047 12.6243 17.5047 11.1642C17.5047 8.28086 15.1456 5.92172 12.2622 5.92172ZM12.2622 8.54298C13.7262 8.54298 14.8835 9.70027 14.8835 11.1642C14.8835 12.6282 13.7262 13.7855 12.2622 13.7855C10.7983 13.7855 9.64096 12.6282 9.64096 11.1642C9.64096 9.70027 10.7983 8.54298 12.2622 8.54298ZM21.4366 9.85361V12.4749H29.3004V9.85361H21.4366ZM21.4366 15.0961V17.7174H29.3004V15.0961H21.4366Z" fill="green"/>
</svg>
